<svg width="105" height="31" viewBox="0 0 105 31" fill="none" xmlns="http://www.w3.org/2000/svg">
<g clip-path="url(#clip0_407_71)">
<rect width="105" height="30.8824" fill="none"/>
<path d="M104.304 27.2364C104.304 27.6251 104.227 28.0099 104.077 28.369C103.927 28.7281 103.707 29.0543 103.43 29.329C103.153 29.6037 102.824 29.8215 102.462 29.9699C102.1 30.1184 101.712 30.1946 101.321 30.1942H3.68086C2.88949 30.195 2.13018 29.8839 1.56994 29.3292C1.0097 28.7745 0.694391 28.0217 0.693359 27.2364V3.64892C0.69439 2.86321 1.00957 2.11003 1.56971 1.55474C2.12984 0.999458 2.88913 0.68746 3.68086 0.687256H101.32C101.712 0.687256 102.1 0.763867 102.462 0.912714C102.824 1.06156 103.153 1.27973 103.43 1.55475C103.707 1.82978 103.927 2.15628 104.076 2.5156C104.226 2.87492 104.303 3.26002 104.303 3.64892L104.304 27.2364Z" fill="white"/>
<path d="M101.32 30.8824H3.6801C2.70522 30.8821 1.77023 30.4982 1.0803 29.8146C0.390372 29.1311 0.00185493 28.2039 0 27.2365L0 3.64975C0.0014422 2.68182 0.389703 1.75397 1.07961 1.06975C1.76952 0.385532 2.70473 0.000816975 3.6801 0L101.319 0C102.294 0.00122463 103.229 0.386071 103.919 1.0702C104.609 1.75433 104.997 2.68194 104.999 3.64975V27.2365C105.001 29.2475 103.347 30.8824 101.32 30.8824V30.8824Z" fill="#A6A6A6"/>
<path d="M104.304 27.2364C104.304 27.6251 104.227 28.0099 104.077 28.369C103.927 28.7281 103.707 29.0543 103.43 29.329C103.153 29.6037 102.824 29.8215 102.462 29.9699C102.1 30.1184 101.712 30.1946 101.321 30.1942H3.68086C2.88949 30.195 2.13018 29.8839 1.56994 29.3292C1.0097 28.7745 0.694391 28.0217 0.693359 27.2364V3.64892C0.69439 2.86321 1.00957 2.11003 1.56971 1.55474C2.12984 0.999458 2.88913 0.68746 3.68086 0.687256H101.32C101.712 0.687256 102.1 0.763867 102.462 0.912714C102.824 1.06156 103.153 1.27973 103.43 1.55475C103.707 1.82978 103.927 2.15628 104.076 2.5156C104.226 2.87492 104.303 3.26002 104.303 3.64892L104.304 27.2364Z" fill="black"/>
<path d="M23.446 15.2787C23.4234 12.7896 25.4997 11.5787 25.5946 11.5223C24.4187 9.82103 22.5962 9.58858 21.9557 9.57004C20.425 9.41018 18.9402 10.479 18.1605 10.479C17.3652 10.479 16.1644 9.58549 14.8702 9.61175C13.2049 9.63723 11.647 10.5941 10.7925 12.0799C9.0291 15.1095 10.3443 19.5617 12.0337 22.0106C12.8788 23.2107 13.8664 24.549 15.159 24.5019C16.4235 24.4509 16.8959 23.7026 18.4219 23.7026C19.934 23.7026 20.3776 24.5019 21.6958 24.4718C23.053 24.4509 23.9075 23.267 24.723 22.0569C25.6996 20.683 26.0919 19.3285 26.1074 19.259C26.0763 19.2481 23.4724 18.2612 23.446 15.2787V15.2787ZM20.9558 7.95909C21.6359 7.11499 22.1013 5.96663 21.9721 4.80127C20.9877 4.84452 19.7566 5.47701 19.0476 6.30256C18.4204 7.03004 17.8601 8.22243 18.0048 9.34377C19.1106 9.42563 20.246 8.79005 20.9558 7.95909V7.95909Z" fill="white"/>
<path d="M101.32 0H49.0215L69.506 30.8824H101.32C102.295 30.8815 103.23 30.497 103.92 29.8131C104.61 29.1293 104.999 28.2018 105 27.2341V3.64975C104.999 2.68188 104.61 1.75415 103.921 1.06998C103.231 0.385801 102.296 0.00102088 101.32 0V0Z" fill="url(#paint0_linear_407_71)"/>
<path d="M41.7626 24.3297H39.9953L39.0272 21.3109H35.6623L34.7401 24.3297H33.0195L36.3541 14.0523H38.4132L41.7626 24.3297V24.3297ZM38.7354 20.0443L37.8599 17.3607C37.7673 17.0865 37.593 16.4409 37.3378 15.4246H37.3066C37.2039 15.8617 37.0397 16.5073 36.8148 17.3607L35.9541 20.0443H38.7354ZM50.3212 20.5332C50.3212 21.7935 49.9765 22.7898 49.2862 23.5211C48.6683 24.1721 47.9002 24.4973 46.9843 24.4973C45.9952 24.4973 45.2839 24.1474 44.852 23.4462V27.3346H43.1929V19.3547C43.1929 18.5631 43.1719 17.7515 43.1314 16.919H44.5906L44.6832 18.0936H44.7143C45.2676 17.2086 46.1073 16.766 47.2341 16.766C48.115 16.766 48.8504 17.1112 49.4387 17.8024C50.0263 18.4952 50.3212 19.4049 50.3212 20.5332ZM48.631 20.5934C48.631 19.8721 48.4675 19.2775 48.1391 18.8087C47.7804 18.3214 47.2987 18.0774 46.6948 18.0774C46.2855 18.0774 45.9135 18.2133 45.5812 18.4813C45.2481 18.7516 45.0302 19.1045 44.9283 19.5416C44.8828 19.7051 44.8569 19.8733 44.8512 20.0428V21.2792C44.8512 21.8175 45.0178 22.2723 45.3509 22.6446C45.6839 23.0153 46.1166 23.2014 46.6489 23.2014C47.2738 23.2014 47.7602 22.9612 48.108 22.4847C48.4566 22.0067 48.631 21.3765 48.631 20.5934V20.5934ZM58.9102 20.5332C58.9102 21.7935 58.5654 22.7898 57.8752 23.5211C57.2565 24.1721 56.4892 24.4973 55.5725 24.4973C54.5834 24.4973 53.8721 24.1474 53.4402 23.4462V27.3346H51.7811V19.3547C51.7811 18.5631 51.7601 17.7515 51.7196 16.919H53.1787L53.2714 18.0936H53.3025C53.855 17.2086 54.6947 16.766 55.8223 16.766C56.7024 16.766 57.4378 17.1112 58.0277 17.8024C58.6145 18.4952 58.9102 19.4049 58.9102 20.5332V20.5332ZM57.2191 20.5934C57.2191 19.8721 57.0549 19.2775 56.7265 18.8087C56.3678 18.3214 55.8877 18.0774 55.2838 18.0774C54.8744 18.0774 54.5025 18.2133 54.1686 18.4813C53.8355 18.7516 53.6184 19.1045 53.5165 19.5416C53.4659 19.7455 53.4387 19.9115 53.4387 20.0428V21.2792C53.4387 21.8175 53.606 22.2723 53.9375 22.6446C54.2706 23.0145 54.7032 23.2014 55.2371 23.2014C55.8628 23.2014 56.3491 22.9612 56.6962 22.4847C57.0448 22.0067 57.2191 21.3765 57.2191 20.5934V20.5934ZM68.5131 21.4468C68.5131 22.3218 68.205 23.033 67.5925 23.5821C66.9186 24.1814 65.9778 24.4818 64.7716 24.4818C63.6572 24.4818 62.7638 24.2687 62.0899 23.8416L62.4735 22.4693C63.2012 22.8971 64.0004 23.1103 64.8704 23.1103C65.4961 23.1103 65.9824 22.9697 66.3295 22.6909C66.6774 22.4113 66.8532 22.0376 66.8532 21.5711C66.8532 21.1533 66.7077 20.8035 66.4221 20.5185C66.135 20.2343 65.6603 19.9694 64.9933 19.7262C63.1801 19.0551 62.2728 18.0735 62.2728 16.7823C62.2728 15.9389 62.5934 15.2485 63.2331 14.7087C63.8727 14.1697 64.721 13.9001 65.7762 13.9001C66.7186 13.9001 67.5038 14.0631 68.1271 14.3882L67.7108 15.7304C67.1241 15.4153 66.4618 15.2578 65.721 15.2578C65.1358 15.2578 64.6766 15.4007 64.3482 15.6849C64.072 15.9389 63.9319 16.2486 63.9319 16.6162C63.9319 17.0217 64.0914 17.3584 64.4089 17.6225C64.6844 17.8658 65.1871 18.1306 65.9139 18.4148C66.8058 18.7716 67.461 19.1871 67.8805 19.6644C68.303 20.1416 68.5131 20.7371 68.5131 21.4468ZM74.0127 18.1546H72.1839V21.7526C72.1839 22.6677 72.5061 23.1242 73.152 23.1242C73.4485 23.1242 73.6944 23.0994 73.8889 23.0477L73.9348 24.298C73.608 24.4193 73.1776 24.4803 72.6446 24.4803C71.9893 24.4803 71.4773 24.2818 71.1076 23.8848C70.7396 23.4879 70.5543 22.823 70.5543 21.887V18.1515H69.4649V16.9159H70.5543V15.559L72.1839 15.0709V16.9159H74.0127V18.1546V18.1546ZM82.2475 20.5633C82.2475 21.7024 81.9191 22.6376 81.2639 23.369C80.5783 24.1219 79.6663 24.4973 78.5293 24.4973C77.4321 24.4973 76.5597 24.1366 75.9091 23.4161C75.2585 22.694 74.9333 21.7843 74.9333 20.6869C74.9333 19.5385 75.2694 18.5979 75.9395 17.8665C76.6111 17.1344 77.5153 16.7684 78.6523 16.7684C79.748 16.7684 80.6281 17.1298 81.2942 17.8511C81.9308 18.5508 82.2475 19.4543 82.2475 20.5633ZM80.5277 20.6011C80.5277 19.9223 80.3799 19.34 80.0834 18.8527C79.7355 18.2643 79.2375 17.97 78.5923 17.97C77.9278 17.97 77.4181 18.2643 77.071 18.8527C76.7737 19.34 76.6258 19.9324 76.6258 20.632C76.6258 21.3116 76.7737 21.8955 77.071 22.3812C77.4297 22.9697 77.9301 23.2639 78.5783 23.2639C79.2126 23.2639 79.7098 22.9635 80.0694 22.3666C80.3744 21.8677 80.5277 21.2815 80.5277 20.6011ZM87.6428 18.367C87.4702 18.336 87.2952 18.3208 87.1198 18.3214C86.5362 18.3214 86.0848 18.5392 85.7673 18.9778C85.4918 19.364 85.3533 19.852 85.3533 20.4413V24.3297H83.6942V19.2528C83.6957 18.4748 83.6796 17.6969 83.646 16.9197H85.0911L85.1518 18.3376H85.1977C85.3736 17.8503 85.649 17.4572 86.0272 17.163C86.3734 16.9059 86.7941 16.7667 87.2265 16.766C87.3798 16.766 87.5183 16.7769 87.6412 16.7962L87.6428 18.367V18.367ZM95.0629 20.2737C95.0671 20.524 95.0468 20.7741 95.0022 21.0205H90.0249C90.0435 21.7526 90.2848 22.3133 90.747 22.6994C91.1665 23.0438 91.7089 23.2168 92.375 23.2168C93.112 23.2168 93.7843 23.101 94.389 22.867L94.6489 24.0092C93.9423 24.315 93.1081 24.4671 92.1454 24.4671C90.9875 24.4671 90.0785 24.1289 89.4171 23.4539C88.7572 22.7782 88.4264 21.87 88.4264 20.7324C88.4264 19.6157 88.7338 18.6851 89.3494 17.943C89.9937 17.1506 90.8645 16.7545 91.9602 16.7545C93.0365 16.7545 93.8512 17.1506 94.4045 17.943C94.8427 18.5708 95.0629 19.3493 95.0629 20.2737V20.2737ZM93.4808 19.8466C93.4925 19.3578 93.3836 18.9369 93.1587 18.5809C92.8715 18.1222 92.4295 17.8936 91.8373 17.8936C91.2949 17.8936 90.8529 18.1167 90.5167 18.5647C90.2404 18.9207 90.0762 19.3485 90.0256 19.8451L93.4808 19.8466Z" fill="white"/>
<path d="M35.1832 10.4188C34.7217 10.4188 34.3225 10.3964 33.9902 10.3586V5.38978C34.455 5.31853 34.9246 5.28342 35.3949 5.28475C37.2976 5.28475 38.1738 6.21379 38.1738 7.72822C38.1738 9.47509 37.1388 10.4188 35.1832 10.4188ZM35.4618 5.92187C35.205 5.92187 34.9863 5.93732 34.805 5.97439V9.75157C34.9031 9.76701 35.0914 9.77396 35.356 9.77396C36.6026 9.77396 37.3124 9.06965 37.3124 7.75061C37.3124 6.57444 36.6703 5.92187 35.4618 5.92187V5.92187ZM40.9045 10.4566C39.8322 10.4566 39.1372 9.66198 39.1372 8.58312C39.1372 7.45869 39.8469 6.65708 40.9652 6.65708C42.022 6.65708 42.7325 7.4139 42.7325 8.52365C42.7325 9.66198 42.0002 10.4566 40.9045 10.4566ZM40.9356 7.24863C40.3466 7.24863 39.9691 7.7954 39.9691 8.55995C39.9691 9.30983 40.3543 9.85659 40.9279 9.85659C41.5014 9.85659 41.8866 9.27199 41.8866 8.54451C41.8866 7.80313 41.5092 7.24863 40.9356 7.24863ZM48.8476 6.73199L47.6997 10.374H46.9519L46.4764 8.79241C46.3582 8.40553 46.2598 8.01298 46.1815 7.61624H46.1659C46.106 8.01318 45.9924 8.4109 45.8718 8.79241L45.3659 10.374H44.6103L43.5302 6.73199H44.3683L44.7838 8.46342C44.8819 8.87581 44.9644 9.26503 45.0329 9.63264H45.0484C45.1083 9.32604 45.2064 8.943 45.3504 8.47114L45.8718 6.73276H46.5363L47.0352 8.43407C47.1558 8.84646 47.2538 9.25113 47.3301 9.63341H47.3519C47.4048 9.25886 47.4881 8.86114 47.6009 8.43407L48.0468 6.73276L48.8476 6.73199V6.73199ZM53.0732 10.374H52.2576V8.28271C52.2576 7.63863 52.0086 7.31582 51.5176 7.31582C51.0343 7.31582 50.702 7.72822 50.702 8.2078V10.374H49.8865V7.77301C49.8865 7.45097 49.8787 7.10576 49.8561 6.73121H50.5736L50.6118 7.29343H50.6343C50.8538 6.9042 51.2989 6.65708 51.7977 6.65708C52.5681 6.65708 53.074 7.24168 53.074 8.19312L53.0732 10.374V10.374ZM55.3222 10.374H54.5059V5.06079H55.3222V10.374ZM58.2957 10.4566C57.2241 10.4566 56.5284 9.66198 56.5284 8.58312C56.5284 7.45869 57.2381 6.65708 58.3556 6.65708C59.4132 6.65708 60.1229 7.4139 60.1229 8.52365C60.1237 9.66198 59.3906 10.4566 58.2957 10.4566ZM58.326 7.24863C57.7369 7.24863 57.3595 7.7954 57.3595 8.55995C57.3595 9.30983 57.7455 9.85659 58.3175 9.85659C58.8918 9.85659 59.2762 9.27199 59.2762 8.54451C59.277 7.80313 58.9003 7.24863 58.326 7.24863V7.24863ZM63.3384 10.374L63.2793 9.95467H63.2575C63.0084 10.2922 62.645 10.4566 62.1843 10.4566C61.5268 10.4566 61.0598 9.99947 61.0598 9.38474C61.0598 8.48581 61.845 8.02091 63.2046 8.02091V7.95372C63.2046 7.47414 62.9485 7.23396 62.4427 7.23396C62.0808 7.23396 61.7633 7.32432 61.484 7.50426L61.3182 6.97216C61.6575 6.7621 62.0808 6.65708 62.5781 6.65708C63.5368 6.65708 64.0209 7.15905 64.0209 8.16378V9.50521C64.0209 9.87281 64.0372 10.1578 64.0738 10.3748L63.3384 10.374V10.374ZM63.2263 8.55995C62.3205 8.55995 61.8661 8.77773 61.8661 9.29438C61.8661 9.67666 62.1003 9.86355 62.4256 9.86355C62.8404 9.86355 63.2263 9.54923 63.2263 9.12216V8.55995V8.55995ZM67.9811 10.374L67.943 9.78941H67.9204C67.6862 10.2311 67.2924 10.4566 66.7422 10.4566C65.8574 10.4566 65.2022 9.68438 65.2022 8.59779C65.2022 7.45869 65.8816 6.6563 66.8092 6.6563C67.3002 6.6563 67.6481 6.8208 67.8442 7.15133H67.8605V5.06079H68.6768V9.39246C68.6768 9.74462 68.6854 10.0744 68.7072 10.374H67.9811ZM67.8605 8.23096C67.8605 7.72126 67.5204 7.28648 67.0014 7.28648C66.3967 7.28648 66.0271 7.81857 66.0271 8.56767C66.0271 9.3021 66.4107 9.80485 66.985 9.80485C67.4979 9.80485 67.8605 9.36234 67.8605 8.83797V8.23096ZM73.8526 10.4566C72.7811 10.4566 72.0861 9.66198 72.0861 8.58312C72.0861 7.45869 72.7958 6.65708 73.9133 6.65708C74.9709 6.65708 75.6806 7.4139 75.6806 8.52365C75.6814 9.66198 74.9491 10.4566 73.8526 10.4566ZM73.883 7.24863C73.2947 7.24863 72.9172 7.7954 72.9172 8.55995C72.9172 9.30983 73.3024 9.85659 73.8752 9.85659C74.4495 9.85659 74.8339 9.27199 74.8339 8.54451C74.8355 7.80313 74.4581 7.24863 73.883 7.24863ZM80.0665 10.374H79.2502V8.28271C79.2502 7.63863 79.0012 7.31582 78.5101 7.31582C78.0269 7.31582 77.6954 7.72822 77.6954 8.2078V10.374H76.879V7.77301C76.879 7.45097 76.8713 7.10576 76.8487 6.73121H77.5662L77.6043 7.29343H77.6269C77.8456 6.9042 78.2915 6.6563 78.7895 6.6563C79.5599 6.6563 80.0665 7.24091 80.0665 8.19235V10.374ZM85.5536 7.33899H84.6564V9.10749C84.6564 9.55773 84.8135 9.78246 85.131 9.78246C85.275 9.78246 85.3956 9.76701 85.4929 9.74462L85.5155 10.3593C85.3575 10.4196 85.1458 10.4497 84.8828 10.4497C84.24 10.4497 83.8556 10.0975 83.8556 9.17545V7.33899H83.3202V6.73199H83.8556V6.06474L84.6564 5.82457V6.73121H85.5536V7.33899V7.33899ZM89.8711 10.374H89.0563V8.29815C89.0563 7.64635 88.808 7.31659 88.3162 7.31659C87.8937 7.31659 87.4999 7.60156 87.4999 8.17845V10.374H86.6851V5.06079H87.4999V7.24863H87.5162C87.773 6.85169 88.145 6.6563 88.6197 6.6563C89.3964 6.6563 89.8711 7.25559 89.8711 8.2078V10.374V10.374ZM94.2943 8.74761H91.8469C91.8625 9.43725 92.3224 9.82648 93.0033 9.82648C93.3652 9.82648 93.6982 9.76624 93.9924 9.65426L94.1192 10.2165C93.7722 10.3663 93.3636 10.4412 92.8881 10.4412C91.7403 10.4412 91.0609 9.72145 91.0609 8.60552C91.0609 7.48881 91.7566 6.64935 92.7963 6.64935C93.734 6.64935 94.3223 7.33899 94.3223 8.38078C94.3276 8.50373 94.3182 8.62686 94.2943 8.74761V8.74761ZM93.5465 8.17073C93.5465 7.60851 93.2609 7.21157 92.7395 7.21157C92.271 7.21157 91.9006 7.61624 91.8477 8.17073H93.5465V8.17073Z" fill="white"/>
</g>
<defs>
<linearGradient id="paint0_linear_407_71" x1="77.0101" y1="30.9643" x2="77.0101" y2="-80.4123" gradientUnits="userSpaceOnUse">
<stop stop-color="#1A1A1A" stop-opacity="0.1"/>
<stop offset="0.123" stop-color="#212121" stop-opacity="0.151"/>
<stop offset="0.308" stop-color="#353535" stop-opacity="0.227"/>
<stop offset="0.532" stop-color="#575757" stop-opacity="0.318"/>
<stop offset="0.783" stop-color="#858585" stop-opacity="0.421"/>
<stop offset="1" stop-color="#B3B3B3" stop-opacity="0.51"/>
</linearGradient>
<clipPath id="clip0_407_71">
<rect width="105" height="30.8824" fill="white"/>
</clipPath>
</defs>
</svg>
