<svg width="37" height="49" viewBox="0 0 37 49" fill="none" xmlns="http://www.w3.org/2000/svg">
<path d="M21.9259 0H0V4.2H21.9259V0Z" fill="#FF9649"/>
<path d="M21.9259 7H0V11.2H21.9259V7Z" fill="#FF9649"/>
<path d="M28.7778 32.2C28.7778 37.6028 24.7277 42 19.7513 42H0V38.1672H19.7513C22.7824 38.1672 25.2475 35.4909 25.2475 32.2C25.2475 28.9091 22.7824 26.2328 19.7513 26.2328H0.169827V22.4H19.7513C24.7277 22.4 28.7778 26.7971 28.7778 32.2Z" fill="#FF9649"/>
<path d="M37 32.2C37 41.4626 29.4245 49 20.115 49H0V45.3917H20.115C27.4262 45.3917 33.3735 39.4744 33.3735 32.2C33.3735 24.9256 27.4262 19.0083 20.115 19.0083H0V15.4H20.115C29.4245 15.4 36.9947 22.9374 36.9947 32.2H37Z" fill="#FF9649"/>
<path d="M21.9259 30.8H0V33.6H21.9259V30.8Z" fill="#FF9649"/>
</svg>
