<svg width="44" height="44" viewBox="0 0 44 44" fill="none" xmlns="http://www.w3.org/2000/svg">
<circle cx="22" cy="22" r="18" stroke="white" stroke-width="8"/>
<mask id="mask0_16192_147929" style="mask-type:alpha" maskUnits="userSpaceOnUse" x="0" y="0" width="44" height="44">
<circle cx="22" cy="22" r="18" stroke="#FF9649" stroke-width="8"/>
</mask>
<g mask="url(#mask0_16192_147929)">
<path d="M31.0313 1.92588C38.6735 5.18959 41.9074 12.542 42.3316 13.5788C42.3661 13.6631 42.3956 13.7425 42.4264 13.8283C43.7377 17.4877 44.6802 23.5693 40.259 24.0114C38.2945 24.2079 37.1065 22.8511 36.3919 21.2677C35.174 18.5688 34.3212 15.6252 32.4333 13.3442L31.4337 12.1363C29.8055 10.169 27.4856 8.90015 24.9508 8.59054L19.2382 7.89278C17.0697 7.62791 15.503 5.68945 15.6989 3.5136C15.8384 1.96332 16.8606 0.632883 18.3954 0.373498C21.1132 -0.0858089 25.7974 -0.309367 31.0313 1.92588Z" fill="#FF9649"/>
</g>
</svg>
