<svg width="10" height="10" viewBox="0 0 10 10" fill="none" xmlns="http://www.w3.org/2000/svg">
<g clip-path="url(#clip0_37_36)">
<path d="M9.90099 5.00896C9.90099 7.74305 7.68457 9.95948 4.9505 9.95948C2.21642 9.95948 0 7.74305 0 5.00896C0 2.27489 2.21642 0.0584717 4.9505 0.0584717C7.68457 0.0584717 9.90099 2.27489 9.90099 5.00896ZM0.899152 5.00896C0.899152 7.24646 2.713 9.06031 4.9505 9.06031C7.18799 9.06031 9.00184 7.24646 9.00184 5.00896C9.00184 2.77147 7.18799 0.957624 4.9505 0.957624C2.713 0.957624 0.899152 2.77147 0.899152 5.00896Z" fill="white"/>
<path d="M9.30375 3.86541C9.54389 3.80233 9.68937 3.55558 9.60477 3.32214C9.43499 2.85371 9.19517 2.41277 8.89277 2.01463C8.49955 1.49693 8.0082 1.06174 7.4468 0.733924C6.88539 0.406107 6.26492 0.192079 5.6208 0.104058C5.12543 0.0363649 4.62355 0.0442166 4.13215 0.126582C3.88728 0.167626 3.74389 0.415597 3.80697 0.655743C3.87005 0.89589 4.11581 1.03678 4.36146 1.00068C4.73776 0.945376 5.12073 0.943231 5.49905 0.994935C6.02618 1.06696 6.53397 1.24212 6.9934 1.51039C7.45285 1.77867 7.85495 2.13482 8.17675 2.55849C8.4077 2.86256 8.59405 3.19713 8.73083 3.55203C8.82012 3.78372 9.0636 3.9285 9.30375 3.86541Z" fill="#FF9649"/>
</g>
<defs>
<clipPath id="clip0_37_36">
<rect width="9.90099" height="10" fill="white"/>
</clipPath>
</defs>
</svg>
