<svg width="121" height="120" viewBox="0 0 121 120" fill="none" xmlns="http://www.w3.org/2000/svg">
<path d="M45.6107 60.4428L55.5369 70.369L75.3893 50.5167M105.168 60.4428C105.168 66.3087 104.012 72.1171 101.768 77.5365C99.5229 82.9558 96.2327 87.88 92.0849 92.0278C87.9371 96.1756 83.013 99.4658 77.5936 101.711C72.1743 103.955 66.3659 105.111 60.5 105.111C54.6341 105.111 48.8257 103.955 43.4064 101.711C37.987 99.4658 33.0629 96.1756 28.9151 92.0278C24.7673 87.88 21.4771 82.9558 19.2323 77.5365C16.9876 72.1171 15.8322 66.3087 15.8322 60.4428C15.8322 48.5962 20.5382 37.2348 28.9151 28.8579C37.2919 20.4811 48.6534 15.775 60.5 15.775C72.3466 15.775 83.7081 20.4811 92.0849 28.8579C100.462 37.2348 105.168 48.5962 105.168 60.4428Z" stroke="#FF9649" stroke-width="9.92618" stroke-linecap="round" stroke-linejoin="round"/>
</svg>
