<?xml version="1.0" encoding="UTF-8"?><svg id="Layer_1" xmlns="http://www.w3.org/2000/svg" viewBox="0 0 1271 1679"><rect x="-.48" width="750.12" height="124.63" style="fill:#ff9649;"/><rect x="-.48" y="256.49" width="750.12" height="124.63" style="fill:#ff9649;"/><path d="M1009.78,1098.53c0,175.77-142.98,318.75-318.75,318.75H-6.38v-124.63H691.03c107.06,0,194.11-87.06,194.11-194.11s-87.06-194.11-194.11-194.11H-.49v-124.63H691.03c175.77,0,318.75,142.98,318.75,318.75h0Z" style="fill:#ff9649;"/><path d="M1271.38,1098.53c0,320.08-260.39,580.47-580.47,580.47H-.51v-124.63H691.01c251.37,0,455.83-204.45,455.83-455.83s-204.45-455.83-455.83-455.83H-.51v-124.63H691.01c319.96,0,580.34,260.39,580.34,580.47h.02Z" style="fill:#ff9649;"/><rect x="-.48" y="1036.28" width="773.13" height="124.63" style="fill:#ff9649;"/></svg>