<svg width="500" height="500" viewBox="0 0 500 500" fill="none" xmlns="http://www.w3.org/2000/svg">
<rect width="500" height="500" rx="250" fill="#FF9649"/>
<path d="M290.111 97H155V123.229H290.111V97Z" fill="white"/>
<path d="M290.111 140.714H155V166.943H290.111V140.714Z" fill="white"/>
<path d="M332.333 298.086C332.333 331.826 307.376 359.286 276.711 359.286H155V335.35H276.711C295.389 335.35 310.579 318.637 310.579 298.086C310.579 277.535 295.389 260.821 276.711 260.821H156.047V236.886H276.711C307.376 236.886 332.333 264.345 332.333 298.086V298.086Z" fill="white"/>
<path d="M383 298.086C383 355.93 336.318 403 278.952 403H155V380.467H278.952C324.005 380.467 360.653 343.513 360.653 298.086C360.653 252.658 324.005 215.705 278.952 215.705H155V193.171H278.952C336.318 193.171 382.967 240.242 382.967 298.086H383Z" fill="white"/>
<path d="M290.111 289.343H155V306.829H290.111V289.343Z" fill="white"/>
</svg>
