<svg width="36" height="22" viewBox="0 0 36 22" fill="none" xmlns="http://www.w3.org/2000/svg">
<g clip-path="url(#clip0_536_2518)">
<g clip-path="url(#clip1_536_2518)">
<path d="M11 22C17.0751 22 22 17.0751 22 11C22 4.92487 17.0751 0 11 0C4.92487 0 0 4.92487 0 11C0 17.0751 4.92487 22 11 22Z" fill="#627EEA"/>
<path d="M11.3423 2.75V8.84812L16.4965 11.1512L11.3423 2.75Z" fill="white" fill-opacity="0.602"/>
<path d="M11.3424 2.75L6.1875 11.1512L11.3424 8.84812V2.75Z" fill="white"/>
<path d="M11.3423 15.103V19.2465L16.4999 12.111L11.3423 15.103Z" fill="white" fill-opacity="0.602"/>
<path d="M11.3424 19.2465V15.1023L6.1875 12.111L11.3424 19.2465Z" fill="white"/>
<path d="M11.3423 14.1439L16.4965 11.1512L11.3423 8.84949V14.1439Z" fill="white" fill-opacity="0.2"/>
<path d="M6.1875 11.1512L11.3424 14.1439V8.84949L6.1875 11.1512Z" fill="white" fill-opacity="0.602"/>
</g>
<circle cx="25" cy="11" r="11" fill="black"/>
<g clip-path="url(#clip2_536_2518)">
<path d="M27.7249 9.14865L27.4661 11.9825L19.68 15.4152L19.4843 15.4466C18.1158 15.6666 17.4692 13.8196 18.6761 13.138L27.7249 9.14856V9.14865Z" fill="white"/>
<path d="M30.1756 3.27161L29.9189 6.08231L18.3798 11.1696C17.8299 9.92224 18.3953 8.46526 19.6426 7.91533L30.1756 3.27161Z" fill="white"/>
<path d="M20.387 17.1806L31.8971 12.1061L31.152 15.1543L23.6682 18.4538C22.4105 19.0083 20.9415 18.4382 20.3871 17.1805L20.387 17.1806Z" fill="white"/>
</g>
</g>
<defs>
<clipPath id="clip0_536_2518">
<rect width="36" height="22" fill="white"/>
</clipPath>
<clipPath id="clip1_536_2518">
<rect width="22" height="22" fill="white"/>
</clipPath>
<clipPath id="clip2_536_2518">
<rect width="15.5625" height="15.5625" fill="white" transform="translate(17.1875 3.1875)"/>
</clipPath>
</defs>
</svg>
