<svg width="36" height="22" viewBox="0 0 36 22" fill="none" xmlns="http://www.w3.org/2000/svg">
<g clip-path="url(#clip0_536_2520)">
<g clip-path="url(#clip1_536_2520)">
<path d="M11 21.5C17.0751 21.5 22 16.5751 22 10.5C22 4.42487 17.0751 -0.5 11 -0.5C4.92487 -0.5 0 4.42487 0 10.5C0 16.5751 4.92487 21.5 11 21.5Z" fill="#3E73C4"/>
<path d="M13.7651 11.9603C13.7651 10.5001 12.8851 9.99955 11.1251 9.79055C9.86832 9.62349 9.61739 9.29005 9.61739 8.70567C9.61739 8.1213 10.0368 7.74593 10.8741 7.74593C11.6283 7.74593 12.0477 7.99617 12.2567 8.62249C12.2785 8.68305 12.3183 8.73548 12.3708 8.77273C12.4233 8.80997 12.4859 8.83024 12.5503 8.8308H13.2206C13.2593 8.83183 13.2978 8.82499 13.3338 8.81069C13.3698 8.79639 13.4025 8.77493 13.43 8.74761C13.4574 8.72029 13.479 8.68767 13.4935 8.65175C13.508 8.61582 13.515 8.57733 13.5141 8.53861V8.49736C13.4322 8.04423 13.2029 7.63084 12.8619 7.3214C12.5209 7.01197 12.0873 6.82382 11.6283 6.78617V5.78517C11.6283 5.61811 11.5025 5.49299 11.2935 5.45105H10.6644C10.4974 5.45105 10.3716 5.57617 10.3296 5.78517V6.74492C9.0722 6.9113 8.27676 7.74592 8.27676 8.78955C8.27676 10.1659 9.11414 10.7084 10.8741 10.9174C12.0477 11.1257 12.4244 11.3766 12.4244 12.0442C12.4244 12.711 11.838 13.1703 11.0419 13.1703C9.9522 13.1703 9.57545 12.7117 9.44964 12.0854C9.40839 11.919 9.28189 11.8352 9.15607 11.8352H8.44382C8.40516 11.8342 8.36672 11.8411 8.3308 11.8555C8.29489 11.8698 8.26226 11.8913 8.23488 11.9186C8.20751 11.9459 8.18595 11.9785 8.17153 12.0144C8.1571 12.0503 8.1501 12.0887 8.15095 12.1274V12.1686C8.31801 13.2122 8.98901 13.963 10.3716 14.172V15.1737C10.3716 15.34 10.4974 15.4659 10.7064 15.5071H11.3354C11.5025 15.5071 11.6283 15.382 11.6703 15.1737V14.1713C12.9277 13.963 13.7651 13.0864 13.7651 11.9596V11.9603Z" fill="white"/>
<path d="M8.86326 16.3417C5.59489 15.1729 3.91876 11.5429 5.13426 8.33025C5.76264 6.57712 7.1452 5.24269 8.86326 4.61637C9.03101 4.53319 9.1142 4.40806 9.1142 4.19906V3.61469C9.1142 3.44831 9.03101 3.32319 8.86326 3.28125C8.82133 3.28125 8.73745 3.28125 8.69551 3.3225C7.75256 3.61697 6.87717 4.09506 6.11974 4.72924C5.36232 5.36342 4.73782 6.14117 4.28221 7.01769C3.8266 7.89422 3.54887 8.85221 3.46502 9.83651C3.38117 10.8208 3.49285 11.812 3.79364 12.7529C4.54714 15.0904 6.34908 16.8848 8.69551 17.6356C8.86326 17.7187 9.03101 17.6356 9.07226 17.4685C9.1142 17.4272 9.1142 17.3846 9.1142 17.3014V16.7171C9.1142 16.5919 8.98908 16.4256 8.86326 16.3417ZM13.3045 3.32319C13.1368 3.23931 12.969 3.32319 12.9278 3.48956C12.8858 3.5315 12.8858 3.57344 12.8858 3.65663V4.241C12.8858 4.40806 13.011 4.57444 13.1368 4.65831C16.4051 5.82706 18.0813 9.45706 16.8658 12.6698C16.2374 14.4229 14.8548 15.7573 13.1368 16.3836C12.969 16.4668 12.8858 16.5919 12.8858 16.8009V17.3853C12.8858 17.5517 12.969 17.6768 13.1368 17.7188C13.1787 17.7188 13.2626 17.7188 13.3045 17.6775C14.2475 17.383 15.1229 16.9049 15.8803 16.2708C16.6377 15.6366 17.2622 14.8588 17.7178 13.9823C18.1734 13.1058 18.4512 12.1478 18.535 11.1635C18.6189 10.1792 18.5072 9.18802 18.2064 8.24706C17.4529 5.86831 15.609 4.07394 13.3045 3.32319Z" fill="white"/>
</g>
<g clip-path="url(#clip2_536_2520)">
<circle cx="25" cy="10.5" r="11" fill="#FF9649"/>
<g clip-path="url(#clip3_536_2520)">
<path d="M27.0256 2.88464H20.2007V3.99427H27.0256V2.88464Z" fill="white"/>
<path d="M27.0256 5.16821H20.2007V6.27784H27.0256V5.16821Z" fill="white"/>
<path d="M29.3924 12.6653C29.3924 14.2302 28.0915 15.5032 26.4923 15.5032H20.147V14.3936H26.4923C27.4664 14.3936 28.2584 13.6185 28.2584 12.6654C28.2584 11.7123 27.4663 10.9371 26.4923 10.9371H20.2006V9.82751H26.4923C28.0915 9.82751 29.3924 11.1005 29.3924 12.6655V12.6653Z" fill="white"/>
<path d="M31.7726 12.6653C31.7726 15.515 29.4035 17.8334 26.4913 17.8334H20.2004V16.7238H26.4922C28.7793 16.7238 30.6395 14.9035 30.6395 12.6654C30.6395 10.4272 28.7793 8.60694 26.4922 8.60694H20.2004V7.49731H26.4922C29.4033 7.49731 31.7724 9.81566 31.7724 12.6654H31.7725L31.7726 12.6653Z" fill="white"/>
<path d="M27.235 12.111H20.2007V13.2206H27.235V12.111Z" fill="white"/>
</g>
</g>
</g>
<defs>
<clipPath id="clip0_536_2520">
<rect width="36" height="22" fill="white"/>
</clipPath>
<clipPath id="clip1_536_2520">
<rect width="22" height="22" fill="white" transform="translate(0 -0.5)"/>
</clipPath>
<clipPath id="clip2_536_2520">
<rect width="22" height="22" fill="white" transform="translate(14 -0.5)"/>
</clipPath>
<clipPath id="clip3_536_2520">
<rect width="11.5641" height="14.9487" fill="white" transform="translate(20.2051 2.88464)"/>
</clipPath>
</defs>
</svg>
