<?xml version="1.0" encoding="UTF-8"?><svg id="Layer_1" xmlns="http://www.w3.org/2000/svg" viewBox="0 0 6000 4000"><rect width="6000" height="4000" style="fill:#ff9649;"/><g><rect x="2246.5" y="1000.66" width="892.94" height="148.36" style="fill:#fff;"/><rect x="2246.5" y="1305.99" width="892.94" height="148.36" style="fill:#fff;"/><path d="M3449.11,2308.35c0,209.24-170.2,379.44-379.44,379.44h-830.19v-148.36h830.19c127.44,0,231.07-103.63,231.07-231.07s-103.63-231.07-231.07-231.07h-823.18v-148.36h823.18c209.24,0,379.44,170.2,379.44,379.44h0Z" style="fill:#fff;"/><path d="M3760.52,2308.35c0,381.02-309.96,690.98-690.98,690.98h-823.06v-148.36h823.18c299.22,0,542.62-243.37,542.62-542.62s-243.37-542.62-542.62-542.62h-823.18v-148.36h823.18c380.88,0,690.84,309.96,690.84,690.98h.02Z" style="fill:#fff;"/><rect x="2246.5" y="2234.24" width="920.33" height="148.36" style="fill:#fff;"/></g></svg>