<?xml version="1.0" encoding="UTF-8"?><svg id="Layer_1" xmlns="http://www.w3.org/2000/svg" xmlns:xlink="http://www.w3.org/1999/xlink" viewBox="0 0 1600 1600"><defs><linearGradient id="linear-gradient" x1="0" y1="800" x2="1600" y2="800" gradientTransform="matrix(1, 0, 0, 1, 0, 0)" gradientUnits="userSpaceOnUse"><stop offset="0" stop-color="#f4f4f4"/><stop offset=".13" stop-color="#d1d1d1"/><stop offset=".4" stop-color="#9b9b9b"/><stop offset=".5" stop-color="#b6b6b6"/><stop offset=".66" stop-color="#e2e2e2"/><stop offset=".75" stop-color="#f4f4f4"/><stop offset="1" stop-color="#c6c6c6"/></linearGradient><linearGradient id="linear-gradient-2" x1="10.72" y1="800" x2="1589.28" y2="800" gradientTransform="matrix(1, 0, 0, 1, 0, 0)" gradientUnits="userSpaceOnUse"><stop offset="0" stop-color="#c6c6c6"/><stop offset=".25" stop-color="#f4f4f4"/><stop offset=".34" stop-color="#e2e2e2"/><stop offset=".5" stop-color="#b6b6b6"/><stop offset=".6" stop-color="#9b9b9b"/><stop offset=".87" stop-color="#d1d1d1"/><stop offset="1" stop-color="#f4f4f4"/></linearGradient><linearGradient id="linear-gradient-3" x1="53.31" y1="800" x2="1546.69" y2="800" gradientTransform="matrix(1, 0, 0, 1, 0, 0)" gradientUnits="userSpaceOnUse"><stop offset="0" stop-color="#c4c4c4"/><stop offset=".25" stop-color="#f9f9f9"/><stop offset=".41" stop-color="#e7e7e7"/><stop offset=".6" stop-color="#cecece"/><stop offset=".87" stop-color="#efefef"/><stop offset="1" stop-color="#fcfcfc"/></linearGradient><linearGradient id="linear-gradient-4" x1="144.02" y1="800" x2="1455.98" y2="800" gradientTransform="matrix(1, 0, 0, 1, 0, 0)" gradientUnits="userSpaceOnUse"><stop offset="0" stop-color="#ddd"/><stop offset=".16" stop-color="#f4f4f4"/><stop offset=".47" stop-color="#e2e2e2"/><stop offset=".63" stop-color="#d8d8d8"/><stop offset="1" stop-color="#f7f7f7"/></linearGradient><linearGradient id="linear-gradient-5" x1="565.94" y1="409.63" x2="937.65" y2="409.63" gradientTransform="matrix(1, 0, 0, 1, 0, 0)" gradientUnits="userSpaceOnUse"><stop offset="0" stop-color="#ddd"/><stop offset=".16" stop-color="#f4f4f4"/><stop offset=".47" stop-color="#e2e2e2"/><stop offset=".63" stop-color="#d8d8d8"/><stop offset="1" stop-color="#f7f7f7"/></linearGradient><linearGradient id="linear-gradient-6" y1="536.73" y2="536.73" xlink:href="#linear-gradient-5"/><linearGradient id="linear-gradient-7" x1="563.02" y1="923.11" x2="1066.56" y2="923.11" xlink:href="#linear-gradient-5"/><linearGradient id="linear-gradient-8" y1="923.11" x2="1196.19" y2="923.11" xlink:href="#linear-gradient-5"/><linearGradient id="linear-gradient-9" y1="923.14" x2="949.05" y2="923.14" xlink:href="#linear-gradient-5"/></defs><g id="Coin"><circle cx="800" cy="800" r="800" style="fill:url(#linear-gradient);"/><circle cx="800" cy="800" r="789.28" style="fill:url(#linear-gradient-2);"/><circle cx="800" cy="800" r="746.69" style="fill:url(#linear-gradient-3);"/><circle cx="800" cy="800" r="735.79" style="fill:#ff9649;"/></g><path id="Digital_Ring" d="M1448.07,902.18c5.25-33.57,7.91-67.95,7.91-102.19v-1.1h-7c-.02-13.05-.42-26.07-1.21-39.01l6.97-.43c-2.08-34.14-6.86-68.3-14.19-101.53l-6.8,1.5c-2.81-12.71-6-25.33-9.58-37.85l6.7-1.91c-9.36-32.8-21.4-65.12-35.81-96.08l-6.34,2.95c-5.49-11.82-11.32-23.44-17.49-34.86l6.12-3.31c-16.21-29.97-34.93-58.92-55.65-86.07l-5.52,4.21c-7.89-10.32-16.1-20.42-24.63-30.29l5.28-4.56c-22.29-25.83-46.78-50.12-72.8-72.18l-4.51,5.32c-9.95-8.45-20.12-16.58-30.52-24.38l4.17-5.56c-27.33-20.5-56.47-38.98-86.6-54.94l-3.26,6.16c-11.5-6.08-23.2-11.82-35.1-17.22l2.89-6.37c-31.1-14.13-63.55-25.9-96.46-34.97l-1.85,6.72c-12.55-3.46-25.2-6.55-37.94-9.24l1.44-6.81c-33.29-7.04-67.49-11.51-101.65-13.29l-.36,6.98c-11.39-.59-22.83-.89-34.31-.89-1.57,0-3.15,.02-4.72,.03l-.05-7c-34.24,.24-68.61,3.16-102.14,8.65l1.13,6.86c-12.86,2.1-25.64,4.6-38.32,7.48l-1.54-6.78c-33.28,7.55-66.22,17.8-97.9,30.47l2.6,6.5c-3.9,1.56-7.79,3.15-11.67,4.79-8.11,3.43-16.14,7.03-24.08,10.77l-2.99-6.33c-30.81,14.54-60.74,31.66-88.97,50.87l3.91,5.74c-10.75,7.32-21.28,14.96-31.58,22.93l-4.25-5.5c-26.99,20.84-52.57,43.98-76.02,68.77l5.08,4.81c-8.98,9.48-17.65,19.2-26,29.14l-5.34-4.48c-21.95,26.17-41.99,54.25-59.57,83.47l5.95,3.58c-6.71,11.16-13.08,22.52-19.12,34.09l-6.18-3.23c-15.82,30.29-29.35,62.04-40.21,94.38l6.61,2.22c-4.16,12.36-7.93,24.82-11.32,37.37l-6.72-1.81c-8.87,32.89-15.2,66.79-18.83,100.78l6.94,.74c-1.37,12.91-2.36,25.88-2.97,38.93l-6.99-.33c-.48,10.29-.72,20.74-.72,31.07,0,23.82,1.29,47.83,3.84,71.37l6.94-.75c1.4,12.97,3.18,25.86,5.35,38.67l-6.87,1.16c5.71,33.67,14.13,67.12,25.04,99.43l6.61-2.23c4.16,12.3,8.7,24.51,13.62,36.6l-6.48,2.63c12.83,31.56,28.28,62.38,45.92,91.61l5.95-3.59c6.72,11.14,13.77,22.08,21.15,32.79l-5.71,3.94c19.34,28.08,41.05,54.87,64.54,79.64l5.08-4.81c3.98,4.19,8.01,8.34,12.11,12.45,5.12,5.12,10.32,10.14,15.59,15.07l-4.78,5.11c24.93,23.33,51.88,44.87,80.09,64.02l3.9-5.74c10.78,7.32,21.78,14.31,32.98,20.96l-3.55,5.98c29.37,17.46,60.33,32.71,92.02,45.33l2.59-6.5c12.14,4.84,24.4,9.3,36.76,13.38l-2.19,6.63c32.38,10.67,65.89,18.86,99.6,24.33l1.11-6.87c12.83,2.08,25.73,3.77,38.71,5.08l-.7,6.94c22.03,2.23,44.49,3.36,66.77,3.36,11.87,0,23.88-.32,35.7-.96l-.37-6.98c13.04-.69,26.01-1.77,38.91-3.23l.79,6.93c33.95-3.87,67.82-10.44,100.64-19.54l-1.86-6.72c12.53-3.48,24.96-7.34,37.29-11.59l2.27,6.61c32.24-11.09,63.88-24.83,94.04-40.86l-3.27-6.16c11.5-6.1,22.8-12.54,33.89-19.31l3.62,5.93c29.07-17.77,57.01-38,83.02-60.11l-4.52-5.31c9.88-8.41,19.54-17.14,28.96-26.18l4.84,5.05c24.64-23.62,47.6-49.36,68.27-76.5l-5.53-4.21c7.91-10.37,15.49-20.97,22.74-31.78l5.76,3.86c19.03-28.38,35.95-58.46,50.29-89.39l-6.35-2.94c3.05-6.6,6.01-13.25,8.85-19.97,2.25-5.31,4.41-10.64,6.51-16l6.51,2.55c12.45-31.79,22.47-64.83,29.78-98.19l-6.8-1.49c2.78-12.71,5.18-25.5,7.19-38.38l6.88,1.08Zm-23.28,35.29l-6.76-1.48c-7.05,32.17-16.71,64.02-28.72,94.68l6.36,2.49c-4.71,11.99-9.77,23.8-15.17,35.42l-6.17-2.86c-13.83,29.83-30.14,58.84-48.5,86.21l5.58,3.74c-7.16,10.66-14.63,21.1-22.41,31.3l-5.33-4.06c-19.93,26.18-42.09,51-65.85,73.79l4.63,4.82c-9.25,8.87-18.77,17.47-28.54,25.79l-4.33-5.1c-25.09,21.33-52.04,40.84-80.08,57.98l3.52,5.75c-10.91,6.68-22.04,13.04-33.37,19.07l-3.18-5.98c-29.08,15.46-59.6,28.71-90.69,39.4l2.23,6.48c-12.09,4.17-24.34,7.98-36.74,11.43l-1.84-6.64c-31.65,8.78-64.31,15.12-97.05,18.85l.79,6.93c-12.67,1.45-25.46,2.52-38.35,3.21l-.37-6.97c-11.4,.61-23,.92-34.45,.92-21.5,0-43.17-1.09-64.42-3.24l-.7,6.94c-12.83-1.3-25.55-3-38.15-5.05l1.11-6.86c-32.5-5.28-64.82-13.17-96.04-23.46l-2.15,6.52c-12.24-4.05-24.31-8.45-36.21-13.2l2.53-6.34c-30.55-12.17-60.4-26.88-88.73-43.72l-3.45,5.8c-11.04-6.57-21.87-13.47-32.48-20.68l3.78-5.56c-27.21-18.47-53.21-39.25-77.26-61.76l-4.57,4.88c-9.36-8.76-18.47-17.81-27.29-27.11l4.85-4.6c-22.65-23.89-43.6-49.74-62.25-76.83l-5.53,3.81c-7.27-10.54-14.23-21.31-20.86-32.29l5.77-3.48c-17.01-28.19-31.91-57.91-44.28-88.34l-6.33,2.57c-4.83-11.85-9.31-23.87-13.44-36.05l6.51-2.2c-10.51-31.15-18.63-63.41-24.14-95.87l-6.84,1.16c-2.14-12.58-3.91-25.29-5.31-38.11l6.92-.75c-2.46-22.71-3.7-45.87-3.7-68.86,0-9.97,.23-20.06,.7-29.99l-6.97-.33c.6-12.89,1.59-25.68,2.95-38.37l6.92,.74c3.5-32.78,9.61-65.47,18.16-97.19l-6.66-1.8c3.36-12.43,7.09-24.7,11.17-36.82l6.51,2.18c10.47-31.18,23.52-61.8,38.78-91l-6-3.14c5.96-11.39,12.26-22.59,18.88-33.56l5.78,3.48c16.96-28.18,36.29-55.26,57.46-80.51l-5.13-4.3c8.25-9.83,16.79-19.41,25.6-28.73l4.86,4.59c22.62-23.91,47.3-46.23,73.34-66.34l-4.09-5.3c10.13-7.83,20.51-15.37,31.11-22.59l3.78,5.55c27.22-18.53,56.09-35.03,85.8-49.06l-2.9-6.14c11.55-5.46,23.29-10.59,35.2-15.37l2.53,6.34c30.55-12.22,62.31-22.11,94.4-29.38l-1.53-6.74c12.45-2.83,25.04-5.31,37.76-7.4l1.12,6.86c32.35-5.3,65.5-8.11,98.54-8.35l-.05-6.98c1.55-.01,3.1-.03,4.65-.03,11.35,0,22.62,.3,33.82,.89l-.36,6.97c32.95,1.72,65.94,6.03,98.04,12.81l1.43-6.77c12.6,2.67,25.06,5.72,37.38,9.12l-1.83,6.64c31.73,8.74,63.02,20.09,93,33.71l2.81-6.19c11.71,5.33,23.23,11.01,34.56,17.02l-3.17,5.98c29.06,15.39,57.16,33.22,83.52,52.99l4.02-5.37c10.27,7.71,20.3,15.72,30.08,24.01l-4.33,5.11c25.1,21.29,48.73,44.71,70.23,69.63l5.07-4.37c8.37,9.7,16.46,19.65,24.25,29.85l-5.33,4.07c19.99,26.18,38.05,54.11,53.68,83.01l5.95-3.22c6.09,11.24,11.86,22.68,17.28,34.32l-6.17,2.87c13.89,29.85,25.5,61.02,34.53,92.64l6.63-1.89c3.52,12.29,6.67,24.72,9.46,37.3l-6.76,1.49c7.08,32.04,11.68,64.99,13.69,97.92l6.97-.42c.78,12.73,1.19,25.56,1.21,38.48h-6.99v1.06c0,33.04-2.57,66.21-7.63,98.59l6.86,1.07c-2,12.73-4.37,25.34-7.11,37.81Z" style="fill:url(#linear-gradient-4);"/><g><rect x="565.94" y="378.75" width="371.71" height="61.76" style="fill:url(#linear-gradient-5);"/><rect x="565.94" y="505.85" width="371.71" height="61.76" style="fill:url(#linear-gradient-6);"/><path d="M1066.56,923.11c0,87.1-70.85,157.95-157.95,157.95h-345.59v-61.76h345.59c53.05,0,96.19-43.14,96.19-96.19s-43.14-96.19-96.19-96.19h-342.67v-61.76h342.67c87.1,0,157.95,70.85,157.95,157.95Z" style="fill:url(#linear-gradient-7);"/><path d="M1196.19,923.11c0,158.61-129.03,287.64-287.64,287.64h-342.62v-61.76h342.67c124.56,0,225.88-101.31,225.88-225.88s-101.31-225.88-225.88-225.88h-342.67v-61.76h342.67c158.55,0,287.58,129.03,287.58,287.64Z" style="fill:url(#linear-gradient-8);"/><rect x="565.94" y="892.26" width="383.11" height="61.76" style="fill:url(#linear-gradient-9);"/></g></svg>