<?xml version="1.0" encoding="UTF-8"?><svg id="Layer_1" xmlns="http://www.w3.org/2000/svg" xmlns:xlink="http://www.w3.org/1999/xlink" viewBox="0 0 1600 1604"><defs><linearGradient id="linear-gradient" x1="-.14" y1="799.86" x2="1599.86" y2="799.86" gradientUnits="userSpaceOnUse"><stop offset="0" stop-color="#f4f4f4"/><stop offset=".13" stop-color="#d1d1d1"/><stop offset=".4" stop-color="#9b9b9b"/><stop offset=".5" stop-color="#b6b6b6"/><stop offset=".66" stop-color="#e2e2e2"/><stop offset=".75" stop-color="#f4f4f4"/><stop offset="1" stop-color="#c6c6c6"/></linearGradient><linearGradient id="linear-gradient-2" x1="10.57" y1="799.86" x2="1589.14" y2="799.86" gradientUnits="userSpaceOnUse"><stop offset="0" stop-color="#c6c6c6"/><stop offset=".25" stop-color="#f4f4f4"/><stop offset=".34" stop-color="#e2e2e2"/><stop offset=".5" stop-color="#b6b6b6"/><stop offset=".6" stop-color="#9b9b9b"/><stop offset=".87" stop-color="#d1d1d1"/><stop offset="1" stop-color="#f4f4f4"/></linearGradient><linearGradient id="linear-gradient-3" x1="53.17" y1="799.86" x2="1546.54" y2="799.86" gradientUnits="userSpaceOnUse"><stop offset="0" stop-color="#c4c4c4"/><stop offset=".25" stop-color="#f9f9f9"/><stop offset=".41" stop-color="#e7e7e7"/><stop offset=".6" stop-color="#cecece"/><stop offset=".87" stop-color="#efefef"/><stop offset="1" stop-color="#fcfcfc"/></linearGradient></defs><g id="Coin"><circle cx="799.86" cy="799.86" r="800" style="fill:url(#linear-gradient);"/><circle cx="799.86" cy="799.86" r="789.28" style="fill:url(#linear-gradient-2);"/><circle cx="799.86" cy="799.86" r="746.69" style="fill:url(#linear-gradient-3);"/><circle cx="799.86" cy="799.86" r="735.79" style="fill:#ff9649;"/></g><g><rect x="571.11" y="389.01" width="367.23" height="61.02" style="fill:#fff;"/><rect x="571.11" y="514.58" width="367.23" height="61.02" style="fill:#fff;"/><path d="M1065.7,926.81c0,86.05-70,156.05-156.05,156.05h-341.43v-61.02h341.43c52.41,0,95.03-42.62,95.03-95.03s-42.62-95.03-95.03-95.03h-338.54v-61.02h338.54c86.05,0,156.05,70,156.05,156.05h0Z" style="fill:#fff;"/><path d="M1193.77,926.81c0,156.7-127.48,284.17-284.17,284.17h-338.49v-61.02h338.54c123.06,0,223.16-100.09,223.16-223.16s-100.09-223.16-223.16-223.16h-338.54v-61.02h338.54c156.64,0,284.11,127.48,284.11,284.17h0Z" style="fill:#fff;"/><rect x="571.11" y="896.34" width="378.49" height="61.02" style="fill:#fff;"/></g></svg>