<?xml version="1.0" encoding="UTF-8"?><svg id="Layer_1" xmlns="http://www.w3.org/2000/svg" xmlns:xlink="http://www.w3.org/1999/xlink" viewBox="0 0 1600 1604"><defs><linearGradient id="linear-gradient" x1="-.14" y1="799.86" x2="1599.86" y2="799.86" gradientUnits="userSpaceOnUse"><stop offset="0" stop-color="#f4f4f4"/><stop offset=".13" stop-color="#d1d1d1"/><stop offset=".4" stop-color="#9b9b9b"/><stop offset=".5" stop-color="#b6b6b6"/><stop offset=".66" stop-color="#e2e2e2"/><stop offset=".75" stop-color="#f4f4f4"/><stop offset="1" stop-color="#c6c6c6"/></linearGradient><linearGradient id="linear-gradient-2" x1="10.57" y1="799.86" x2="1589.14" y2="799.86" gradientUnits="userSpaceOnUse"><stop offset="0" stop-color="#c6c6c6"/><stop offset=".25" stop-color="#f4f4f4"/><stop offset=".34" stop-color="#e2e2e2"/><stop offset=".5" stop-color="#b6b6b6"/><stop offset=".6" stop-color="#9b9b9b"/><stop offset=".87" stop-color="#d1d1d1"/><stop offset="1" stop-color="#f4f4f4"/></linearGradient><linearGradient id="linear-gradient-3" x1="53.17" y1="799.86" x2="1546.54" y2="799.86" gradientUnits="userSpaceOnUse"><stop offset="0" stop-color="#c4c4c4"/><stop offset=".25" stop-color="#f9f9f9"/><stop offset=".41" stop-color="#e7e7e7"/><stop offset=".6" stop-color="#cecece"/><stop offset=".87" stop-color="#efefef"/><stop offset="1" stop-color="#fcfcfc"/></linearGradient></defs><g id="Coin"><circle cx="799.86" cy="799.86" r="800" style="fill:url(#linear-gradient);"/><circle cx="799.86" cy="799.86" r="789.28" style="fill:url(#linear-gradient-2);"/><circle cx="799.86" cy="799.86" r="746.69" style="fill:url(#linear-gradient-3);"/><circle cx="799.86" cy="799.86" r="735.79" style="fill:#3e00ff;"/></g><g><path d="M964.82,693.16l-15.48,169.46-465.59,205.27-11.7,1.88c-81.83,13.16-120.5-97.29-48.33-138.05h0l541.1-238.56Z" style="fill:#fff;"/><path d="M1111.36,341.73l-15.35,168.07L405.99,814.01h0c-32.88-74.59,.93-161.71,75.51-194.59l629.85-277.69Z" style="fill:#fff;"/><path d="M526.02,1173.45l688.28-303.44-44.56,182.28-447.52,197.3c-75.21,33.16-163.05-.93-196.2-76.14h0Z" style="fill:#fff;"/></g></svg>